<?xml version="1.0" encoding="utf-8"?>
<!-- Generator: Adobe Illustrator 22.0.0, SVG Export Plug-In . SVG Version: 6.00 Build 0)  -->
<svg version="1.1" id="TWE_Logotype" xmlns="http://www.w3.org/2000/svg" xmlns:xlink="http://www.w3.org/1999/xlink" x="0px"
	 y="0px" viewBox="0 0 800 800" style="enable-background:new 0 0 800 800;" xml:space="preserve">
<style type="text/css">
	.st0{fill:#203A74;}
	.st1{fill:#FFFFFF;}
</style>
<rect x="0" y="0" class="st0" width="800" height="800"/>
<g id="Logotype_3_">
	<g id="English_7_">
		<path class="st1" d="M164.301,483.2v14.693H110.04v14.903h46.914v13.119H110.04v16.057h54.261v14.694H91.359V483.2H164.301z"/>
		<path class="st1" d="M173.126,556.667v-53.316h16.583l-2.519,16.058h1.784c1.538-5.597,4.461-9.9,8.764-12.91
			c4.303-3.008,9.882-4.513,16.74-4.513c9.026,0,16.127,2.624,21.305,7.872c5.177,5.247,7.767,12.489,7.767,21.725v25.084h-16.478
			v-21.305c0-6.227-1.645-11.021-4.933-14.379c-3.29-3.359-7.872-5.038-13.749-5.038s-10.461,1.679-13.749,5.038
			c-3.29,3.358-4.933,8.152-4.933,14.379v21.305H173.126z"/>
		<path class="st1" d="M267.175,577.868c-3.849-0.7-7.767-1.784-11.755-3.254v-13.538c4.687,1.469,8.833,2.5,12.437,3.096
			c3.603,0.594,7.468,0.892,11.597,0.892c10.005,0,17.371-1.994,22.094-5.982c4.723-3.989,7.083-9.656,7.083-17.003v-2.1h-1.574
			c-1.75,4.549-4.69,8.013-8.816,10.39c-4.13,2.38-9.971,3.569-17.527,3.569c-6.228,0-11.597-1.118-16.111-3.358
			c-4.513-2.238-7.96-5.316-10.338-9.236c-2.379-3.918-3.568-8.396-3.568-13.434c0-4.967,1.189-9.41,3.568-13.329
			c2.378-3.918,5.807-6.995,10.286-9.236c4.477-2.238,9.795-3.358,15.953-3.358c7.347,0,13.224,1.365,17.632,4.094
			c4.408,2.729,7.452,6.577,9.131,11.544h1.679l-2.309-14.168h16.478v33.69c0,14.273-3.429,24.803-10.285,31.591
			c-6.86,6.786-17.598,10.181-32.222,10.181C275.5,578.918,271.022,578.567,267.175,577.868z M301.442,538.458
			c3.321-2.553,4.986-5.825,4.986-9.812c0-3.989-1.665-7.242-4.986-9.761c-3.325-2.519-8.205-3.779-14.641-3.779
			c-6.438,0-11.319,1.26-14.641,3.779c-3.324,2.519-4.985,5.772-4.985,9.761c0,3.988,1.661,7.259,4.985,9.812
			c3.322,2.555,8.203,3.831,14.641,3.831C293.238,542.288,298.117,541.013,301.442,538.458z"/>
		<path class="st1" d="M350.202,556.667H333.62V483.2h16.582V556.667z"/>
		<path class="st1" d="M361.756,492.856c-1.75-1.609-2.623-3.637-2.623-6.087c0-2.448,0.874-4.477,2.623-6.087
			c1.749-1.609,4.128-2.414,7.137-2.414c2.938,0,5.282,0.805,7.032,2.414c1.749,1.61,2.623,3.639,2.623,6.087
			c0,2.45-0.875,4.479-2.623,6.087c-1.75,1.61-4.094,2.414-7.032,2.414C365.884,495.27,363.505,494.466,361.756,492.856z
			 M377.185,556.667h-16.583v-53.316h16.583V556.667z"/>
		<path class="st1" d="M392.886,552.627c-5.424-3.603-8.134-8.449-8.134-14.536v-0.84h16.792v0.63c0,5.598,5.841,8.396,17.527,8.396
			c6.647,0,11.212-0.559,13.696-1.679c2.484-1.119,3.726-2.588,3.726-4.408c0-1.609-0.823-2.797-2.466-3.569
			c-1.645-0.769-3.692-1.276-6.14-1.522c-2.449-0.244-5.948-0.472-10.495-0.682c-6.717-0.279-12.211-0.751-16.478-1.416
			c-4.268-0.665-7.942-2.081-11.021-4.251c-3.079-2.168-4.617-5.458-4.617-9.865c0-5.039,2.623-9.113,7.871-12.227
			c5.248-3.113,13.888-4.671,25.924-4.671c11.264,0,19.626,1.873,25.084,5.615c5.457,3.744,8.326,8.59,8.606,14.536h-16.793
			c-0.419-5.597-6.052-8.396-16.897-8.396c-11.335,0-17.003,2.03-17.003,6.088c0,2.1,1.469,3.448,4.408,4.041
			c2.938,0.595,7.625,1.033,14.063,1.312c6.786,0.21,12.366,0.648,16.741,1.312c4.372,0.667,8.133,2.117,11.283,4.357
			c3.148,2.239,4.722,5.598,4.722,10.075c0,11.405-11.405,17.107-34.214,17.107C407.036,558.032,398.307,556.232,392.886,552.627z"
			/>
		<path class="st1" d="M460.851,556.667V483.2h16.582v17.107c0,3.219-0.209,6.333-0.629,9.341c-0.419,3.009-1.05,6.263-1.889,9.761
			h1.785c1.538-5.597,4.46-9.9,8.764-12.91c4.303-3.008,9.882-4.513,16.74-4.513c9.027,0,16.127,2.624,21.306,7.872
			c5.176,5.247,7.766,12.489,7.766,21.725v25.084h-16.478v-21.305c0-6.227-1.644-11.021-4.932-14.379
			c-3.29-3.359-7.872-5.038-13.75-5.038s-10.461,1.679-13.749,5.038c-3.289,3.358-4.933,8.152-4.933,14.379v21.305H460.851z"/>
	</g>
	<g id="Weeny_4_">
		<path class="st1" d="M49.078,467.412L19.5,356.098h34.932l14.312,63.608c1.59,8.483,2.385,17.015,2.385,25.603v1.59h2.862v-1.59
			c0-9.964,0.795-18.498,2.385-25.603l11.45-45.321h37.846l11.45,45.321c1.59,7.104,2.385,15.639,2.385,25.603v1.59h2.862v-1.59
			c0-8.588,0.795-17.119,2.385-25.603l14.312-63.608h34.932L164.42,467.412h-41.133l-11.608-41.345
			c-1.486-5.829-2.44-10.52-2.863-14.073c-0.425-3.551-0.636-9.037-0.636-16.459V394.9h-2.862v0.636
			c0,7.422-0.214,12.908-0.636,16.459c-0.425,3.553-1.379,8.244-2.863,14.073l-11.608,41.345H49.078z"/>
		<path class="st1" d="M422.346,467.412v-80.941h30.214l-4.293,23.694h3.021c4.771-17.174,17.119-25.761,37.052-25.761
			c13.358,0,23.853,3.844,31.486,11.529c7.632,7.688,11.449,18.367,11.449,32.042v39.437h-30.214v-32.281
			c0-8.055-2.146-14.284-6.441-18.685c-4.293-4.398-10.257-6.599-17.89-6.599c-7.632,0-13.571,2.201-17.81,6.599
			c-4.242,4.401-6.361,10.63-6.361,18.685v32.281H422.346z"/>
		<path class="st1" d="M564.349,499.296c-5.725-1.113-11.45-2.731-17.174-4.85V469.48c6.679,2.226,12.667,3.789,17.969,4.691
			c5.3,0.9,10.547,1.352,15.743,1.352c13.463,0,23.507-2.997,30.135-8.985c6.624-5.988,9.939-14.495,9.939-25.522v-2.227h-2.704
			c-2.226,8.165-6.123,14.129-11.688,17.89c-5.566,3.764-13.119,5.645-22.66,5.645c-13.253,0-24.674-3.709-32.148-11.131
			c-7.475-7.419-11.211-17.703-11.211-30.849v-33.871h30.214v28.146c0,7.422,2.013,13.199,6.043,17.333
			c4.027,4.135,10.601,6.202,17.598,6.202c7.102,0,12.668-2.067,16.697-6.202c4.027-4.134,6.043-9.911,6.043-17.333v-28.146h30.214
			v48.183c0,22.687-5.275,39.409-15.822,50.17c-10.55,10.759-26.744,16.141-48.581,16.141
			C576.276,500.966,570.074,500.409,564.349,499.296z"/>
		<path class="st1" d="M413.496,427.339c0-8.056-2.174-15.345-6.519-21.865c-4.348-6.52-10.762-11.66-19.242-15.425
			c-8.483-3.762-18.712-5.645-30.691-5.645c-11.981,0-22.21,1.883-30.691,5.645c-8.483,3.764-14.869,8.88-19.161,15.345
			c-4.294,6.467-6.442,13.676-6.442,21.627c0,7.951,2.147,15.134,6.442,21.547c4.292,6.415,10.653,11.529,19.082,15.345
			c8.427,3.816,18.577,5.725,30.452,5.725c11.235,0,20.724-1.512,28.464-4.533c7.738-3.021,13.728-6.703,17.969-11.052
			c3.91-4.008,6.68-8.108,8.337-12.298c0,0-1.129,0-1.129,0h-27.159c0,0,0,0,0,0c-2.385,2.083-5.472,3.826-9.183,5.183
			c-3.861,1.415-9.522,2.132-16.823,2.132c-7.452,0-13.607-1.216-18.292-3.615c-4.767-2.437-8.091-5.826-9.877-10.074l-0.618-1.471
			c0,0,83.533,0,83.533,0h1.062C413.325,431.644,413.496,429.451,413.496,427.339z M328.272,420.131l0.599-1.462
			c1.784-4.354,5.108-7.8,9.88-10.243c4.69-2.399,10.845-3.615,18.293-3.615c7.552,0,13.76,1.216,18.452,3.614
			c4.769,2.442,8.093,5.888,9.88,10.242l0.6,1.463H328.272z"/>
		<path class="st1" d="M296.034,427.339c0-8.056-2.174-15.345-6.519-21.865c-4.348-6.52-10.762-11.66-19.242-15.425
			c-8.483-3.762-18.712-5.645-30.691-5.645c-11.981,0-22.21,1.883-30.691,5.645c-8.483,3.764-14.869,8.88-19.161,15.345
			c-4.294,6.467-6.442,13.676-6.442,21.627c0,7.951,2.147,15.134,6.442,21.547c4.292,6.415,10.653,11.529,19.082,15.345
			c8.427,3.816,18.577,5.725,30.452,5.725c11.235,0,20.724-1.512,28.464-4.533c7.738-3.021,13.728-6.703,17.969-11.052
			c3.91-4.008,6.68-8.108,8.337-12.298c0,0-1.129,0-1.129,0h-27.159c0,0,0,0,0,0c-2.385,2.083-5.472,3.826-9.183,5.183
			c-3.861,1.415-9.522,2.132-16.823,2.132c-7.453,0-13.607-1.216-18.292-3.615c-4.767-2.437-8.091-5.826-9.877-10.074l-0.618-1.471
			c0,0,83.532,0,83.532,0h1.062C295.864,431.644,296.034,429.451,296.034,427.339z M210.81,420.131l0.599-1.462
			c1.784-4.354,5.108-7.8,9.88-10.243c4.69-2.399,10.845-3.615,18.293-3.615c7.552,0,13.76,1.216,18.452,3.614
			c4.769,2.442,8.093,5.888,9.88,10.242l0.6,1.463H210.81z"/>
	</g>
	<g id="Teeny_6_">
		<path class="st1" d="M540.549,370.94v-80.941h30.214l-4.293,23.694h3.022c4.771-17.174,16.059-25.761,35.991-25.761
			c13.357,0,22.793,3.844,30.426,11.529c7.633,7.688,11.449,18.367,11.449,32.042v39.437h-30.214v-32.281
			c0-8.055-1.087-14.284-5.379-18.685c-4.294-4.398-10.258-6.599-17.89-6.599c-7.634,0-13.573,2.201-17.811,6.599
			c-4.241,4.401-5.301,10.63-5.301,18.685v32.281H540.549z"/>
		<path class="st1" d="M681.492,402.824c-5.724-1.113-11.449-2.731-17.174-4.85v-24.966c6.68,2.226,12.668,3.789,17.969,4.691
			c5.3,0.9,10.547,1.352,15.744,1.352c13.461,0,23.507-2.997,30.133-8.985c6.625-5.988,9.939-14.495,9.939-25.522v-2.227H735.4
			c-2.227,8.165-6.123,14.129-11.688,17.89c-5.566,3.764-13.119,5.645-22.66,5.645c-13.254,0-23.615-3.709-31.089-11.131
			c-7.474-7.419-11.211-17.703-11.211-30.849v-33.871h30.214v28.146c0,7.422,2.013,13.199,6.043,17.333
			c4.028,4.135,9.541,6.202,16.539,6.202c7.1,0,12.666-2.067,16.697-6.202c4.027-4.134,6.042-9.911,6.042-17.333v-28.146H764.5
			v48.183c0,22.687-5.275,39.409-15.822,50.17c-10.551,10.759-26.742,16.141-48.581,16.141
			C693.418,404.494,687.216,403.937,681.492,402.824z"/>
		<path class="st1" d="M531.698,330.867c0-8.056-2.174-15.345-6.519-21.865c-4.348-6.52-10.762-11.66-19.242-15.425
			c-8.483-3.762-18.712-5.645-30.691-5.645c-11.981,0-22.21,1.883-30.691,5.645c-8.483,3.764-14.869,8.88-19.161,15.345
			c-4.294,6.467-6.442,13.676-6.442,21.627c0,7.951,2.147,15.134,6.442,21.547c4.292,6.415,10.653,11.529,19.082,15.345
			c8.427,3.816,18.577,5.725,30.452,5.725c11.235,0,20.724-1.512,28.464-4.532c7.738-3.021,13.728-6.703,17.969-11.052
			c3.91-4.008,6.68-8.108,8.337-12.298c0,0-1.129,0-1.129,0h-27.159c0,0,0,0,0,0c-2.385,2.083-5.472,3.826-9.183,5.183
			c-3.862,1.415-9.522,2.132-16.823,2.132c-7.453,0-13.607-1.216-18.292-3.615c-4.767-2.437-8.091-5.826-9.877-10.074l-0.618-1.471
			c0,0,83.532,0,83.532,0h1.062C531.528,335.172,531.698,332.979,531.698,330.867z M446.474,323.659l0.599-1.462
			c1.784-4.354,5.108-7.8,9.88-10.243c4.69-2.399,10.845-3.615,18.293-3.615c7.552,0,13.76,1.216,18.452,3.614
			c4.769,2.442,8.093,5.888,9.88,10.242l0.6,1.463H446.474z"/>
		<path class="st1" d="M414.237,330.867c0-8.056-2.174-15.345-6.519-21.865c-4.348-6.52-10.762-11.66-19.242-15.425
			c-8.483-3.762-18.712-5.645-30.691-5.645c-11.981,0-22.21,1.883-30.691,5.645c-8.483,3.764-14.869,8.88-19.161,15.345
			c-4.294,6.467-6.442,13.676-6.442,21.627c0,7.951,2.147,15.134,6.442,21.547c4.292,6.415,10.653,11.529,19.082,15.345
			c8.427,3.816,18.577,5.725,30.452,5.725c11.235,0,20.724-1.512,28.464-4.532c7.738-3.021,13.728-6.703,17.969-11.052
			c3.91-4.008,6.68-8.108,8.337-12.298c0,0-1.129,0-1.129,0H383.95c0,0,0,0,0,0c-2.385,2.083-5.472,3.826-9.183,5.183
			c-3.861,1.415-9.522,2.132-16.823,2.132c-7.453,0-13.607-1.216-18.292-3.615c-4.767-2.437-8.091-5.826-9.877-10.074l-0.618-1.471
			c0,0,83.533,0,83.533,0h1.062C414.067,335.172,414.237,332.979,414.237,330.867z M329.013,323.659l0.599-1.462
			c1.784-4.354,5.108-7.8,9.88-10.243c4.69-2.399,10.845-3.615,18.293-3.615c7.552,0,13.76,1.216,18.452,3.614
			c4.769,2.442,8.093,5.888,9.88,10.242l0.6,1.463H329.013z"/>
		<path class="st1" d="M273.876,370.94h-32.228v-83.008h-43.413v-28.306h119.053v28.306h-43.413V370.94z"/>
	</g>
</g>
</svg>
