<?xml version="1.0" encoding="utf-8"?>
<!-- Generator: Adobe Illustrator 22.0.0, SVG Export Plug-In . SVG Version: 6.00 Build 0)  -->
<svg version="1.1" id="Layer_1" xmlns="http://www.w3.org/2000/svg" xmlns:xlink="http://www.w3.org/1999/xlink" x="0px" y="0px"
	 viewBox="0 0 600 600" style="enable-background:new 0 0 600 600;" xml:space="preserve">
<style type="text/css">
	.st0{opacity:0;fill:#2AB4F5;}
	.st1{fill:#225692;}
	.st2{opacity:0.54;fill:#2AB4F5;}
</style>
<rect x="1378" y="-696" class="st0" width="600" height="600"/>
<rect x="2078" y="-696" class="st0" width="600" height="600"/>
<g>
	<g>
		<g>
			<rect x="2203" y="-561.467" class="st1" width="35.15" height="151.364"/>
			<rect x="2337.917" y="-561.467" class="st1" width="35.15" height="151.364"/>
			<rect x="2292.945" y="-561.467" class="st1" width="35.15" height="151.364"/>
			<rect x="2247.972" y="-561.467" class="st1" width="35.15" height="151.364"/>
			<path class="st1" d="M2366.825-416.154l-51.984,51.984h-53.615l-51.984-51.984l-6.242,6.242l80.852,80.851
				c2.31,2.31,6.055,2.31,8.365,0l80.852-80.851L2366.825-416.154z"/>
		</g>
	</g>
	<g>
		<path class="st1" d="M2416.966-454.454c-4.471-15.989-6.852-33.585-7.078-52.297c-0.075-6.225,0.092-12.142,0.41-17.642
			c-11.244,19.904-17.921,46.795-17.931,77.074c0.008,25.203,4.635,48.059,12.669,66.493c15.557-8.443,27.002-17.243,35.37-25.331
			C2429.961-419.949,2422.08-436.164,2416.966-454.454z"/>
		<path class="st1" d="M2506.903-434.017c-9.641-4.141-19.926-6.599-30.807-7.352c-1.512,5.793-5.124,15.83-13.601,27.581
			c-7.517,10.422-17.388,20.182-29.336,29.007c-6.937,5.124-14.602,9.937-22.924,14.422c1.731,3.073,3.568,5.986,5.509,8.715
			c5.701,8.103,12.279,14.65,19.516,19.632c6.216-3.376,14.959-8.838,24.329-16.922
			C2475.323-372.511,2495.993-396.413,2506.903-434.017z"/>
		<path class="st1" d="M2517.488-428.646c-4.977,16.446-12.069,31.684-21.13,45.384c-8.294,12.539-18.243,23.817-29.57,33.522
			c-7.106,6.088-13.843,10.778-19.566,14.295c7.994,3.369,16.554,5.112,25.462,5.194c22.31-0.206,42.447-10.795,56.94-31.395
			c7.719-10.849,13.84-24.535,17.878-40.224c-2.621-3.362-5.703-6.943-9.264-10.517
			C2531.767-418.881,2524.842-424.304,2517.488-428.646z"/>
		<path class="st1" d="M2489.235-503.227c-12.193-1.019-21.736,1.075-26.76,2.59c1.81,15.687,5.552,32.212,12.522,47.52
			c27.219,1.463,51.986,12.758,71.83,32.824c1.298,1.312,2.531,2.622,3.711,3.922c1.605-9.777,2.458-20.147,2.462-30.949
			c-0.002-7.391-0.406-14.578-1.172-21.514C2533.064-489.754,2512.038-501.321,2489.235-503.227z"/>
		<path class="st1" d="M2421.557-506.589c0.347,25.969,5.425,62.284,26.945,91.782c1.467-1.745,2.786-3.428,3.97-5.035
			c9.273-12.592,12.056-22.813,12.809-26.491c-15.321-32.267-16.923-69.466-15.528-95.192c0.377-6.961,0.98-13.443,1.676-19.272
			c-10.162,3.48-19.507,9.482-27.615,17.96C2422.523-533.372,2421.368-520.743,2421.557-506.589z"/>
		<path class="st1" d="M2461.445-512.454c6.421-1.693,16.483-3.425,28.762-2.398c12.369,1.034,24.482,4.649,36.005,10.745
			c7.724,4.087,15.182,9.307,22.318,15.592c-3.99-17.473-10.497-32.66-18.906-44.479c-14.493-20.6-34.63-31.188-56.94-31.395
			c-3.083,0.029-6.123,0.263-9.114,0.687c-0.91,6.728-1.728,14.547-2.182,23.062C2460.943-532.298,2460.83-522.688,2461.445-512.454
			z"/>
	</g>
</g>
<g>
	<path class="st1" d="M1732.099-343.258h-77.683l-9.967-26.385h-89.703l-9.969,26.385h-77.683l89.116-205.201h86.771
		L1732.099-343.258z M1575.853-425.341h47.488l-8.5-22.571c-4.888-12.506-8.162-22.763-9.821-30.779
		c-1.663-8.012-2.491-16.124-2.491-24.332v-1.469h-5.863v1.469c0,8.208-0.835,16.32-2.493,24.332
		c-1.663,8.016-4.936,18.273-9.821,30.779L1575.853-425.341z"/>
	<path class="st1" d="M1894.5-490.712v147.454h-19.055v-53.353h-92.048h-5.571l-34.004,53.353h-22.279l37.23-56.283
		c-10.947-3.125-19.155-8.454-24.626-15.978c-5.473-7.519-8.208-16.858-8.208-27.995c0-14.851,4.838-26.43,14.511-34.738
		c9.675-8.304,23.987-12.46,42.946-12.46H1894.5z M1754.816-420.354c6.545,5.671,16.072,8.5,28.582,8.5h92.634v-62.442h-92.634
		c-12.51,0-22.036,2.787-28.582,8.358c-6.551,5.566-9.821,13.144-9.821,22.717C1744.995-433.645,1748.265-426.021,1754.816-420.354z
		"/>
</g>
<g>
	<path class="st1" d="M2172.388-179.658h-16.416v-39.672h-20.748v-13.528h57.912v13.528h-20.748V-179.658z"/>
	<path class="st1" d="M2240.332-195.162h-39.596c0.81,1.926,2.305,3.446,4.484,4.56c2.178,1.115,5.016,1.672,8.512,1.672
		c3.445,0,6.067-0.329,7.866-0.988c1.798-0.658,3.255-1.494,4.37-2.508h13.908c-0.76,2.179-2.154,4.307-4.18,6.384
		c-2.027,2.078-4.89,3.838-8.588,5.282c-3.699,1.444-8.234,2.166-13.604,2.166c-5.675,0-10.526-0.912-14.554-2.736
		c-4.028-1.824-7.068-4.268-9.12-7.334c-2.052-3.065-3.078-6.498-3.078-10.298c0-3.8,1.026-7.245,3.078-10.336
		c2.052-3.09,5.104-5.535,9.158-7.334c4.053-1.798,8.942-2.698,14.668-2.698c5.725,0,10.614,0.9,14.668,2.698
		c4.053,1.799,7.118,4.256,9.196,7.372c2.077,3.116,3.116,6.6,3.116,10.45C2240.635-197.644,2240.533-196.428,2240.332-195.162z
		 M2205.143-207.398c-2.179,1.115-3.674,2.66-4.484,4.636h26.068c-0.812-1.976-2.306-3.521-4.484-4.636
		c-2.179-1.114-5.042-1.672-8.588-1.672C2210.159-209.07,2207.321-208.512,2205.143-207.398z"/>
	<path class="st1" d="M2240.104-179.658l16.872-19.684l-16.112-19h17.936l5.396,6.916c1.874,2.736,2.812,5.219,2.812,7.448v0.304
		h1.368v-0.304c0-1.216,0.253-2.419,0.76-3.61c0.506-1.19,1.216-2.47,2.128-3.838l5.32-6.916h17.936l-16.112,19l16.872,19.684
		h-18.24l-6.384-8.056c-1.52-2.178-2.28-4.18-2.28-6.004v-0.684h-1.368v0.684c0,1.926-0.735,3.927-2.204,6.004l-6.46,8.056H2240.104
		z"/>
	<path class="st1" d="M2312.201-183.116c-3.319-3.014-4.978-7.41-4.978-13.186v-10.64h-12.92v-10.336h10.26
		c1.672,0,2.875-0.354,3.61-1.064c0.734-0.709,1.102-1.9,1.102-3.572v-5.548h11.856v9.576h23.028v10.944h-23.028v10.716
		c0,3.8,1.95,5.7,5.852,5.7c2.026,0,3.534-0.43,4.522-1.292c0.988-0.861,1.482-2.077,1.482-3.648v-2.28h14.44v0.988
		c0,5.827-1.685,10.311-5.054,13.452c-3.37,3.142-8.398,4.712-15.086,4.712C2320.548-178.594,2315.519-180.101,2312.201-183.116z"/>
	<path class="st1" d="M2418.179-187.486l-7.372,8.816l-5.852-4.712c-5.219,3.192-12.566,4.788-22.04,4.788
		c-9.526,0-16.48-1.608-20.862-4.826c-4.383-3.217-6.574-7.612-6.574-13.186c0-3.901,1.089-7.156,3.268-9.766
		c2.178-2.609,5.7-4.496,10.564-5.662l-10.792-8.74v-12.084h49.096v11.324h-29.716v1.368l20.368,16.492v-9.576h12.008v19.38
		L2418.179-187.486z M2394.467-191.818l-15.884-12.768c-3.243,0.406-5.536,1.178-6.878,2.318c-1.343,1.14-2.014,2.597-2.014,4.37
		c0,2.382,1.064,4.193,3.192,5.434c2.128,1.242,5.928,1.862,11.4,1.862C2388.741-190.602,2392.136-191.007,2394.467-191.818z"/>
	<path class="st1" d="M2460.19-232.858c7.549,0,13.249,1.672,17.1,5.016c3.85,3.344,5.776,7.98,5.776,13.908
		c0,5.928-1.926,10.564-5.776,13.908c-3.851,3.344-9.551,5.016-17.1,5.016h-18.24v15.352h-16.416v-53.2H2460.19z M2459.43-207.93
		c2.381,0,4.18-0.544,5.396-1.634c1.216-1.089,1.824-2.546,1.824-4.37c0-1.824-0.608-3.28-1.824-4.37
		c-1.216-1.089-3.015-1.634-5.396-1.634h-18.392v12.008H2459.43z"/>
	<path class="st1" d="M2503.434-179.658h-14.44v-53.2h14.44V-179.658z"/>
	<path class="st1" d="M2519.545-181.14c-3.192-1.697-5.65-4.091-7.372-7.182c-1.723-3.09-2.584-6.637-2.584-10.64
		c0-4.001,0.861-7.549,2.584-10.64c1.722-3.09,4.18-5.484,7.372-7.182c3.192-1.697,6.89-2.546,11.096-2.546
		c9.981,0,16.238,3.724,18.772,11.172h1.368l-2.053-10.184h14.517v38.684h-14.517l2.053-10.108h-1.368
		c-2.534,7.448-8.791,11.172-18.772,11.172C2526.435-178.594,2522.737-179.443,2519.545-181.14z M2545.309-192.502
		c2.128-1.722,3.192-3.876,3.192-6.46c0-2.634-1.064-4.813-3.192-6.536c-2.128-1.722-5.143-2.584-9.044-2.584
		c-3.902,0-6.916,0.862-9.044,2.584c-2.128,1.723-3.191,3.902-3.191,6.536c0,2.584,1.063,4.738,3.191,6.46
		c2.128,1.723,5.142,2.584,9.044,2.584C2540.166-189.918,2543.181-190.779,2545.309-192.502z"/>
	<path class="st1" d="M2581.104-164.42c-2.736-0.532-5.472-1.305-8.208-2.318v-11.932c3.192,1.064,6.054,1.811,8.588,2.242
		c2.533,0.43,5.041,0.646,7.524,0.646c6.434,0,11.234-1.432,14.401-4.294c3.166-2.862,4.75-6.928,4.75-12.198v-1.064h-1.292
		c-1.063,3.902-2.926,6.752-5.586,8.55c-2.66,1.799-6.27,2.698-10.83,2.698c-6.334,0-11.286-1.773-14.857-5.32
		c-3.572-3.546-5.358-8.461-5.358-14.744v-16.188h14.44v13.452c0,3.547,0.962,6.308,2.888,8.284c1.925,1.976,4.56,2.964,7.904,2.964
		c3.394,0,6.054-0.988,7.979-2.964c1.925-1.976,2.889-4.737,2.889-8.284v-13.452h14.439v23.028c0,10.843-2.521,18.834-7.562,23.978
		c-5.043,5.142-12.781,7.714-23.219,7.714C2586.805-163.622,2583.841-163.888,2581.104-164.42z"/>
</g>
<g>
	<path class="st1" d="M1549.105-192.882v-39.976h16.416v53.2h-81.852v-53.2h16.416v39.976h16.644v-39.976h15.808v39.976H1549.105z"
		/>
	<path class="st1" d="M1573.729-165.142v-53.2h14.44l-2.052,10.184h1.444c2.432-7.448,8.689-11.172,18.772-11.172
		c4.205,0,7.904,0.849,11.096,2.546c3.192,1.698,5.649,4.092,7.372,7.182c1.722,3.091,2.584,6.638,2.584,10.64
		c0,4.003-0.874,7.55-2.622,10.64c-1.748,3.091-4.206,5.485-7.372,7.182c-3.167,1.697-6.853,2.546-11.058,2.546
		c-10.083,0-16.34-3.724-18.772-11.172h-1.444c1.368,5.067,2.052,9.728,2.052,13.984v10.64H1573.729z M1609.753-192.502
		c2.128-1.722,3.192-3.876,3.192-6.46c0-2.634-1.064-4.813-3.192-6.536c-2.128-1.722-5.168-2.584-9.12-2.584
		c-3.851,0-6.84,0.862-8.968,2.584c-2.128,1.723-3.192,3.902-3.192,6.536c0,2.584,1.064,4.738,3.192,6.46
		c2.128,1.723,5.117,2.584,8.968,2.584C1604.585-189.918,1607.625-190.779,1609.753-192.502z"/>
	<path class="st1" d="M1633.16-179.658v-38.684h13.832v15.732c0,3.395-0.165,6.22-0.494,8.474c-0.33,2.255-0.849,4.446-1.558,6.574
		h1.444l15.884-30.78h22.268v38.684h-13.832v-15.732c0-3.394,0.164-6.219,0.494-8.474c0.329-2.254,0.848-4.446,1.558-6.574h-1.444
		l-15.884,30.78H1633.16z"/>
	<path class="st1" d="M1732.415-219.33c6.029,0,11.121,0.887,15.276,2.66c4.154,1.774,7.258,4.193,9.31,7.258
		c2.052,3.066,3.078,6.549,3.078,10.45c0,3.851-1.026,7.322-3.078,10.412c-2.052,3.091-5.156,5.523-9.31,7.296
		c-4.155,1.773-9.247,2.66-15.276,2.66h-0.152v13.452h-14.516v-13.452h-0.152c-6.03,0-11.123-0.887-15.276-2.66
		c-4.155-1.773-7.258-4.205-9.31-7.296c-2.052-3.09-3.078-6.561-3.078-10.412c0-3.901,1.026-7.384,3.078-10.45
		c2.052-3.065,5.155-5.484,9.31-7.258c4.154-1.773,9.246-2.66,15.276-2.66h0.152v-13.528h14.516v13.528H1732.415z M1707.525-192.236
		c2.305,1.748,5.662,2.622,10.07,2.622h0.836v-18.772h-0.836c-4.459,0-7.828,0.874-10.108,2.622c-2.28,1.748-3.42,4.016-3.42,6.802
		C1704.067-196.226,1705.219-193.984,1707.525-192.236z M1732.415-189.614c4.458,0,7.828-0.874,10.108-2.622
		c2.28-1.748,3.42-3.99,3.42-6.726c0-2.786-1.14-5.054-3.42-6.802c-2.28-1.748-5.65-2.622-10.108-2.622h-0.836v18.772H1732.415z"/>
	<path class="st1" d="M1790.935-179.658h-14.439v-26.524h-15.96v-12.16h46.359v12.16h-15.96V-179.658z"/>
	<path class="st1" d="M1835.927-208.538c5.725,0,10.031,1.267,12.92,3.8c2.888,2.534,4.332,6.08,4.332,10.64
		s-1.444,8.107-4.332,10.64c-2.889,2.534-7.195,3.8-12.92,3.8h-26.221v-38.684h14.44v9.804H1835.927z M1834.255-190.07
		c1.621,0,2.862-0.367,3.725-1.102c0.86-0.734,1.292-1.71,1.292-2.926s-0.432-2.191-1.292-2.926
		c-0.862-0.734-2.104-1.102-3.725-1.102h-11.02v8.056H1834.255z M1857.891-179.658v-38.684h14.439v38.684H1857.891z"/>
</g>
<rect y="-696" class="st0" width="600" height="600"/>
<rect x="700" y="-696" class="st0" width="600" height="600"/>
<g>
	<path class="st1" d="M104.528-178.81v-13.528c1.114,0.355,2.306,0.532,3.572,0.532c2.432,0,4.191-0.532,5.282-1.596
		c1.089-1.064,1.786-2.938,2.09-5.624l3.876-32.832h53.58v53.2h-16.416v-39.672h-22.8l-2.433,22.116
		c-0.71,6.182-2.584,10.83-5.624,13.946c-3.04,3.116-7.523,4.674-13.452,4.674C109.316-177.594,106.758-178,104.528-178.81z"/>
	<path class="st1" d="M191.586-180.33c-4.13-1.824-7.232-4.268-9.31-7.334c-2.078-3.065-3.116-6.498-3.116-10.298
		c0-3.8,1.038-7.245,3.116-10.336c2.077-3.09,5.18-5.535,9.31-7.334c4.129-1.798,9.132-2.698,15.011-2.698
		c5.877,0,10.867,0.9,14.972,2.698c4.104,1.799,7.207,4.244,9.31,7.334c2.103,3.091,3.154,6.536,3.154,10.336
		c0,3.8-1.052,7.233-3.154,10.298c-2.103,3.066-5.219,5.51-9.348,7.334c-4.13,1.824-9.108,2.736-14.934,2.736
		C200.718-177.594,195.715-178.506,191.586-180.33z M216.248-191.464c2.229-1.697,3.344-3.863,3.344-6.498
		c0-2.584-1.128-4.75-3.382-6.498c-2.255-1.748-5.46-2.622-9.613-2.622c-4.155,0-7.36,0.874-9.614,2.622
		c-2.255,1.748-3.382,3.914-3.382,6.498c0,2.635,1.113,4.801,3.344,6.498c2.229,1.698,5.445,2.546,9.652,2.546
		C210.801-188.918,214.019-189.766,216.248-191.464z"/>
	<path class="st1" d="M253.868-178.658h-14.44v-38.684h39.596v12.16h-25.155V-178.658z"/>
	<path class="st1" d="M293.35-180.33c-4.13-1.824-7.232-4.268-9.31-7.334c-2.078-3.065-3.116-6.498-3.116-10.298
		c0-3.8,1.038-7.245,3.116-10.336c2.077-3.09,5.18-5.535,9.31-7.334c4.129-1.798,9.132-2.698,15.011-2.698
		c5.877,0,10.867,0.9,14.972,2.698c4.104,1.799,7.207,4.244,9.31,7.334c2.103,3.091,3.154,6.536,3.154,10.336
		c0,3.8-1.052,7.233-3.154,10.298c-2.103,3.066-5.219,5.51-9.348,7.334c-4.13,1.824-9.108,2.736-14.934,2.736
		C302.481-177.594,297.479-178.506,293.35-180.33z M318.012-191.464c2.229-1.697,3.344-3.863,3.344-6.498
		c0-2.584-1.128-4.75-3.382-6.498c-2.255-1.748-5.46-2.622-9.613-2.622c-4.155,0-7.36,0.874-9.614,2.622
		c-2.255,1.748-3.382,3.914-3.382,6.498c0,2.635,1.113,4.801,3.344,6.498c2.229,1.698,5.445,2.546,9.652,2.546
		C312.564-188.918,315.782-189.766,318.012-191.464z"/>
	<path class="st1" d="M366.652-178.658h-14.44v-26.524h-15.96v-12.16h46.36v12.16h-15.96V-178.658z"/>
	<path class="st1" d="M385.424-178.658v-38.684h13.832v15.732c0,3.395-0.165,6.22-0.494,8.474c-0.33,2.255-0.849,4.446-1.558,6.574
		h1.443l15.885-30.78H436.8v38.684h-13.832v-15.732c0-3.394,0.164-6.219,0.494-8.474c0.328-2.254,0.848-4.446,1.559-6.574h-1.445
		l-15.884,30.78H385.424z"/>
	<path class="st1" d="M458.611-178.658h-14.44v-38.684h49.856v38.684h-14.44v-26.524h-20.976V-178.658z"/>
</g>
<path class="st1" d="M412.165-437.84c-7.007-4.18-16.239-6.932-26.89-6.615v-2.806c10.651,0.316,19.883-2.436,26.89-6.615
	c9.788-5.671,15.287-15.84,15.335-27.441c-0.053-11.601-5.558-21.767-15.349-27.432c-9.751-5.81-26.134-6.738-41.592-0.56
	c-4.925,1.968-9.504,4.231-13.791,6.684c2.452-4.287,4.715-8.866,6.684-13.791c6.179-15.457,5.25-31.841-0.56-41.592
	c-5.665-9.791-15.831-15.296-27.432-15.349c-11.601,0.048-21.771,5.547-27.441,15.335c-4.18,7.007-6.932,16.239-6.615,26.89h-2.806
	c0.316-10.651-2.436-19.883-6.615-26.89c-5.671-9.789-15.84-15.287-27.441-15.335c-11.601,0.053-21.767,5.558-27.433,15.349
	c-5.809,9.751-6.738,26.134-0.56,41.592c1.968,4.925,4.231,9.504,6.684,13.791c-4.287-2.452-8.866-4.715-13.791-6.684
	c-15.457-6.179-31.841-5.25-41.592,0.56c-9.791,5.665-15.295,15.831-15.349,27.432c0.048,11.601,5.547,21.771,15.335,27.441
	c7.007,4.18,16.239,6.932,26.89,6.615v2.806c-10.651-0.316-19.883,2.436-26.89,6.615c-9.788,5.671-15.287,15.84-15.335,27.441
	c0.053,11.601,5.558,21.767,15.349,27.432c9.751,5.81,26.135,6.738,41.592,0.56c4.925-1.968,9.504-4.231,13.791-6.684
	c-2.452,4.287-4.715,8.866-6.684,13.791c-6.179,15.457-5.25,31.841,0.56,41.592c5.665,9.791,15.831,15.296,27.433,15.349
	c11.601-0.048,21.771-5.547,27.441-15.335c4.18-7.007,6.932-16.239,6.615-26.89h2.806c-0.316,10.651,2.436,19.883,6.615,26.89
	c5.671,9.788,15.84,15.287,27.441,15.335c11.601-0.053,21.767-5.558,27.432-15.349c5.809-9.751,6.738-26.135,0.56-41.592
	c-1.968-4.925-4.231-9.504-6.684-13.791c4.287,2.452,8.866,4.715,13.791,6.684c15.457,6.179,31.841,5.25,41.592-0.56
	c9.791-5.665,15.295-15.831,15.349-27.432C427.452-422,421.953-432.169,412.165-437.84z M236.166-443.205
	c-3.183-0.881-6.512-1.769-9.98-2.654c3.468-0.885,6.797-1.773,9.98-2.654c29.714-8.224,52.956-31.466,61.18-61.18
	c0.881-3.183,1.769-6.512,2.654-9.98c0.885,3.468,1.773,6.797,2.654,9.98c8.224,29.714,31.466,52.956,61.18,61.18
	c3.183,0.881,6.512,1.769,9.98,2.654c-3.468,0.885-6.797,1.773-9.98,2.654c-29.714,8.224-52.955,31.466-61.18,61.18
	c-0.881,3.183-1.769,6.512-2.654,9.98c-0.885-3.468-1.773-6.797-2.654-9.98C289.122-411.739,265.88-434.98,236.166-443.205z"/>
<g>
	<path class="st1" d="M928.56-165.966h-15.808v-12.692h-52.516v-53.2h16.416v39.976h27.36v-39.976h16.416v39.976h8.132V-165.966z"/>
	<path class="st1" d="M972.64-198.418c2.989,0,5.408,0.874,7.258,2.622c1.849,1.748,2.774,3.99,2.774,6.726
		c0,3.294-1.115,5.852-3.344,7.676c-2.23,1.824-5.7,2.736-10.412,2.736h-35.948v-38.684h35.036c4.357,0,7.638,0.849,9.842,2.546
		c2.204,1.698,3.306,3.94,3.306,6.726c0,2.483-0.773,4.484-2.318,6.004c-1.546,1.52-3.56,2.28-6.042,2.28h-0.456v1.368H972.64z
		 M946.8-207.766v5.776h16.568c1.013,0,1.811-0.266,2.394-0.798c0.582-0.532,0.874-1.228,0.874-2.09c0-0.861-0.292-1.558-0.874-2.09
		c-0.583-0.532-1.381-0.798-2.394-0.798H946.8z M964.508-188.158c1.165,0,2.064-0.278,2.698-0.836c0.633-0.557,0.95-1.317,0.95-2.28
		c0-0.912-0.317-1.646-0.95-2.204c-0.634-0.557-1.533-0.836-2.698-0.836H946.8v6.156H964.508z"/>
	<path class="st1" d="M1038.152-194.162h-39.596c0.81,1.926,2.305,3.446,4.484,4.56c2.178,1.115,5.016,1.672,8.512,1.672
		c3.445,0,6.067-0.329,7.866-0.988c1.798-0.658,3.255-1.494,4.37-2.508h13.908c-0.76,2.179-2.154,4.307-4.18,6.384
		c-2.027,2.078-4.89,3.838-8.588,5.282c-3.699,1.444-8.234,2.166-13.604,2.166c-5.675,0-10.526-0.912-14.554-2.736
		c-4.028-1.824-7.068-4.268-9.12-7.334c-2.052-3.065-3.078-6.498-3.078-10.298c0-3.8,1.026-7.245,3.078-10.336
		c2.052-3.09,5.104-5.535,9.158-7.334c4.053-1.798,8.942-2.698,14.668-2.698c5.725,0,10.614,0.9,14.668,2.698
		c4.053,1.799,7.118,4.256,9.196,7.372c2.077,3.116,3.116,6.6,3.116,10.45C1038.455-196.644,1038.353-195.428,1038.152-194.162z
		 M1002.963-206.398c-2.179,1.115-3.674,2.66-4.484,4.636h26.068c-0.812-1.976-2.306-3.521-4.484-4.636
		c-2.179-1.114-5.042-1.672-8.588-1.672C1007.979-208.07,1005.141-207.512,1002.963-206.398z"/>
	<path class="st1" d="M1069.311-178.658h-14.44v-26.524h-15.96v-12.16h46.36v12.16h-15.96V-178.658z"/>
	<path class="st1" d="M1096.064-180.14c-3.192-1.697-5.65-4.091-7.372-7.182c-1.723-3.09-2.584-6.637-2.584-10.64
		c0-4.001,0.861-7.549,2.584-10.64c1.722-3.09,4.18-5.484,7.372-7.182c3.192-1.697,6.89-2.546,11.096-2.546
		c9.981,0,16.239,3.724,18.772,11.172h1.369l-2.053-10.184h14.516v38.684h-14.516l2.053-10.108h-1.369
		c-2.533,7.448-8.791,11.172-18.772,11.172C1102.954-177.594,1099.256-178.443,1096.064-180.14z M1121.828-191.502
		c2.127-1.722,3.191-3.876,3.191-6.46c0-2.634-1.064-4.813-3.191-6.536c-2.129-1.722-5.143-2.584-9.045-2.584
		s-6.916,0.862-9.043,2.584c-2.128,1.723-3.192,3.902-3.192,6.536c0,2.584,1.064,4.738,3.192,6.46
		c2.128,1.723,5.141,2.584,9.043,2.584S1119.699-189.779,1121.828-191.502z"/>
</g>
<g>
	<path class="st1" d="M1092.776-346.141c62.029-41.216,88.875-155.185-15.495-206.813c-89.332-44.189-164.491,1.68-164.491,1.68
		c-19.607,10.056-60.355,48.252-60.33,76.925c0.02,23.97,18.099,27.653,37.706,27.15c19.607-0.503,48.264,10.558,59.325,75.416
		S1034.529-307.439,1092.776-346.141z M1113.603-397.902c0,9.98-8.09,18.07-18.069,18.07c-9.979,0-18.069-8.09-18.069-18.07
		c0-9.98,8.09-18.07,18.069-18.07C1105.513-415.972,1113.603-407.882,1113.603-397.902z M1109.135-500.336
		c0,9.98-8.09,18.07-18.069,18.07c-9.979,0-18.069-8.09-18.069-18.07c0-9.98,8.09-18.07,18.069-18.07
		C1101.046-518.406,1109.135-510.316,1109.135-500.336z M1062.706-528.099c0,9.98-8.09,18.07-18.069,18.07
		c-9.979,0-18.069-8.09-18.069-18.07s8.09-18.07,18.069-18.07C1054.617-546.169,1062.706-538.079,1062.706-528.099z
		 M989.593-554.545c9.979,0,18.069,8.09,18.069,18.07s-8.09,18.07-18.069,18.07c-9.979,0-18.069-8.09-18.069-18.07
		S979.614-554.545,989.593-554.545z M918.076-523.472c0-9.98,8.09-18.07,18.069-18.07c9.979,0,18.069,8.09,18.069,18.07
		s-8.09,18.07-18.069,18.07C926.166-505.402,918.076-513.492,918.076-523.472z M877.95-487.971c0-9.98,8.09-18.07,18.069-18.07
		c9.979,0,18.069,8.09,18.069,18.07s-8.09,18.07-18.069,18.07C886.04-469.901,877.95-477.991,877.95-487.971z M1093.739-450.555
		c0-9.98,8.09-18.07,18.069-18.07c9.979,0,18.069,8.09,18.069,18.07s-8.09,18.07-18.069,18.07
		C1101.828-432.486,1093.739-440.576,1093.739-450.555z M976.032-380.418c-6.03-5.222-8.322-13.365-8.385-21.508
		c0.063-8.143,2.355-16.286,8.385-21.508c5.909-5.329,15.124-7.354,24.339-7.41c9.215,0.055,18.43,2.081,24.339,7.41
		c6.03,5.222,8.322,13.365,8.385,21.508c-0.063,8.143-2.355,16.286-8.385,21.508c-5.909,5.329-15.124,7.354-24.339,7.41
		C991.155-373.064,981.94-375.089,976.032-380.418z"/>
</g>
<rect x="1378" class="st0" width="600" height="600"/>
<rect x="2078" class="st0" width="600" height="600"/>
<g>
	<g>
		<g>
			<rect x="2874.693" y="-406.933" class="st1" width="42.242" height="181.903"/>
			<rect x="3036.83" y="-406.933" class="st1" width="42.242" height="181.903"/>
			<rect x="2982.784" y="-406.933" class="st1" width="42.242" height="181.903"/>
			<rect x="2928.739" y="-406.933" class="st1" width="42.242" height="181.903"/>
			<path class="st1" d="M3071.571-232.303l-62.472,62.472h-64.433l-62.472-62.472l-7.501,7.502l97.164,97.164
				c2.776,2.776,7.276,2.776,10.052,0l97.164-97.164L3071.571-232.303z"/>
		</g>
	</g>
	<g>
		<path class="st1" d="M3131.827-278.33c-5.373-19.215-8.234-40.361-8.505-62.848c-0.09-7.481,0.111-14.592,0.493-21.202
			c-13.512,23.92-21.537,56.236-21.549,92.624c0.01,30.288,5.57,57.755,15.226,79.908c18.696-10.147,32.45-20.722,42.506-30.441
			C3147.444-236.863,3137.973-256.35,3131.827-278.33z"/>
		<path class="st1" d="M3239.91-253.77c-11.586-4.976-23.946-7.93-37.023-8.835c-1.817,6.962-6.158,19.024-16.344,33.146
			c-9.034,12.525-20.896,24.254-35.255,34.86c-8.337,6.158-17.548,11.942-27.549,17.331c2.081,3.694,4.287,7.194,6.62,10.473
			c6.851,9.738,14.756,17.606,23.453,23.593c7.47-4.057,17.977-10.621,29.238-20.336
			C3201.958-179.854,3226.798-208.578,3239.91-253.77z"/>
		<path class="st1" d="M3252.63-247.315c-5.981,19.764-14.504,38.076-25.393,54.541c-9.967,15.069-21.923,28.622-35.536,40.285
			c-8.54,7.317-16.636,12.953-23.513,17.179c9.607,4.049,19.894,6.143,30.599,6.242c26.811-0.248,51.011-12.973,68.429-37.729
			c9.277-13.038,16.632-29.485,21.485-48.34c-3.15-4.041-6.854-8.344-11.133-12.639
			C3269.791-235.58,3261.468-242.097,3252.63-247.315z"/>
		<path class="st1" d="M3218.677-336.943c-14.653-1.225-26.121,1.292-32.158,3.113c2.175,18.852,6.672,38.711,15.049,57.107
			c32.71,1.758,62.475,15.332,86.321,39.446c1.56,1.577,3.041,3.151,4.46,4.713c1.928-11.749,2.954-24.211,2.958-37.193
			c-0.003-8.883-0.488-17.519-1.408-25.854C3271.349-320.752,3246.081-334.653,3218.677-336.943z"/>
		<path class="st1" d="M3137.345-340.983c0.417,31.208,6.519,74.85,32.381,110.299c1.763-2.096,3.348-4.119,4.771-6.051
			c11.144-15.133,14.489-27.416,15.393-31.835c-18.412-38.777-20.338-83.481-18.661-114.397c0.453-8.366,1.177-16.155,2.014-23.16
			c-12.212,4.182-23.442,11.395-33.186,21.584C3138.506-373.171,3137.118-357.993,3137.345-340.983z"/>
		<path class="st1" d="M3185.281-348.032c7.717-2.035,19.808-4.116,34.564-2.882c14.865,1.242,29.422,5.587,43.269,12.913
			c9.283,4.911,18.245,11.185,26.821,18.738c-4.795-20.998-12.615-39.25-22.72-53.452c-17.417-24.756-41.617-37.48-68.429-37.729
			c-3.705,0.034-7.358,0.316-10.953,0.826c-1.094,8.085-2.077,17.482-2.622,27.715
			C3184.677-371.879,3184.541-360.33,3185.281-348.032z"/>
	</g>
</g>
<g>
	<path class="st1" d="M1767.245,424.344h-99.446l-12.759-33.776h-114.833l-12.762,33.776H1428l114.082-262.689h111.08
		L1767.245,424.344z M1567.226,319.266h60.792l-10.881-28.894c-6.258-16.009-10.449-29.14-12.572-39.401
		c-2.129-10.256-3.189-20.641-3.189-31.148v-1.88h-7.505v1.88c0,10.507-1.068,20.892-3.192,31.148
		c-2.129,10.262-6.319,23.392-12.572,39.401L1567.226,319.266z"/>
	<path class="st1" d="M1912,235.581v188.763h-24.393v-68.3h-54.692h-7.131l-43.53,68.3h-28.52l47.66-72.05
		c-14.014-4.001-24.522-10.823-31.525-20.454c-7.006-9.626-10.507-21.581-10.507-35.838c0-19.012,6.194-33.835,18.576-44.471
		c12.385-10.63,30.707-15.951,54.978-15.951H1912z M1796.326,325.649c8.379,7.26,20.574,10.881,36.589,10.881h55.443v-79.935
		h-55.443c-16.015,0-28.21,3.568-36.589,10.7c-8.387,7.126-12.572,16.827-12.572,29.081
		C1783.754,308.635,1787.939,318.395,1796.326,325.649z"/>
</g>
<rect class="st0" width="600" height="600"/>
<rect x="700" class="st0" width="600" height="600"/>
<rect y="720" class="st2" width="600" height="600"/>
<path class="st1" d="M453.952,1031.005c-9.617-5.737-22.289-9.514-36.907-9.08v-3.851c14.619,0.434,27.29-3.343,36.907-9.08
	c13.435-7.783,20.983-21.742,21.048-37.665c-0.073-15.923-7.628-29.876-21.067-37.652c-13.384-7.974-35.871-9.249-57.087-0.768
	c-6.759,2.702-13.045,5.808-18.929,9.174c3.366-5.884,6.472-12.17,9.174-18.929c8.48-21.216,7.206-43.703-0.768-57.087
	c-7.776-13.439-21.729-20.994-37.652-21.067c-15.923,0.066-29.881,7.613-37.665,21.049c-5.737,9.617-9.514,22.289-9.08,36.907
	h-3.851c0.434-14.619-3.343-27.29-9.08-36.907c-7.783-13.435-21.742-20.983-37.664-21.049c-15.924,0.073-29.877,7.629-37.653,21.067
	c-7.974,13.384-9.249,35.871-0.768,57.087c2.702,6.759,5.808,13.045,9.174,18.929c-5.884-3.366-12.17-6.472-18.929-9.174
	c-21.216-8.48-43.703-7.206-57.087,0.768c-13.439,7.776-20.994,21.729-21.067,37.652c0.066,15.923,7.613,29.881,21.048,37.665
	c9.617,5.737,22.289,9.514,36.907,9.08v3.851c-14.619-0.434-27.29,3.343-36.907,9.08c-13.435,7.783-20.983,21.742-21.048,37.665
	c0.073,15.923,7.628,29.876,21.067,37.652c13.384,7.974,35.871,9.249,57.087,0.768c6.759-2.702,13.045-5.808,18.929-9.174
	c-3.366,5.884-6.472,12.17-9.174,18.929c-8.48,21.216-7.206,43.703,0.768,57.087c7.776,13.439,21.729,20.994,37.653,21.067
	c15.923-0.066,29.881-7.614,37.664-21.049c5.737-9.617,9.514-22.289,9.08-36.907h3.851c-0.434,14.619,3.343,27.29,9.08,36.907
	c7.783,13.435,21.742,20.983,37.665,21.049c15.923-0.073,29.876-7.629,37.652-21.067c7.974-13.384,9.249-35.871,0.768-57.087
	c-2.702-6.759-5.808-13.045-9.174-18.929c5.884,3.366,12.17,6.472,18.929,9.174c21.216,8.48,43.703,7.206,57.087-0.768
	c13.439-7.776,20.994-21.729,21.067-37.652C474.934,1052.747,467.387,1038.789,453.952,1031.005z M212.385,1023.643
	c-4.369-1.209-8.938-2.428-13.698-3.643c4.76-1.215,9.329-2.433,13.698-3.642c40.784-11.288,72.685-43.189,83.973-83.973
	c1.209-4.369,2.427-8.938,3.642-13.698c1.215,4.76,2.433,9.329,3.642,13.698c11.288,40.784,43.189,72.684,83.972,83.973
	c4.369,1.209,8.938,2.428,13.698,3.643c-4.76,1.215-9.329,2.433-13.698,3.642c-40.783,11.288-72.684,43.189-83.972,83.972
	c-1.209,4.369-2.428,8.938-3.642,13.698c-1.215-4.76-2.433-9.329-3.643-13.698C285.069,1066.831,253.169,1034.931,212.385,1023.643z
	"/>
<g>
	<path class="st1" d="M1115.114,423.7c76.948-51.128,110.25-192.508-19.221-256.553c-110.817-54.817-204.052,2.084-204.052,2.084
		c-24.323,12.474-74.871,59.857-74.84,95.426c0.025,29.735,22.452,34.303,46.775,33.68s59.872,13.098,73.593,93.555
		S1042.859,471.71,1115.114,423.7z M1140.95,359.49c0,12.38-10.035,22.416-22.415,22.416c-12.379,0-22.415-10.036-22.415-22.416
		s10.035-22.416,22.415-22.416C1130.915,337.075,1140.95,347.111,1140.95,359.49z M1135.408,232.42
		c0,12.38-10.035,22.416-22.415,22.416s-22.415-10.036-22.415-22.416s10.035-22.416,22.415-22.416S1135.408,220.04,1135.408,232.42z
		 M1077.813,197.98c0,12.38-10.035,22.416-22.415,22.416c-12.379,0-22.415-10.036-22.415-22.416
		c0-12.38,10.035-22.416,22.415-22.416C1067.777,175.564,1077.813,185.6,1077.813,197.98z M987.115,165.173
		c12.379,0,22.415,10.036,22.415,22.416c0,12.38-10.035,22.416-22.415,22.416c-12.379,0-22.415-10.036-22.415-22.416
		C964.7,175.209,974.736,165.173,987.115,165.173z M898.397,203.719c0-12.38,10.035-22.416,22.415-22.416
		s22.415,10.036,22.415,22.416c0,12.38-10.035,22.416-22.415,22.416S898.397,216.099,898.397,203.719z M848.621,247.759
		c0-12.38,10.035-22.416,22.415-22.416s22.415,10.036,22.415,22.416s-10.035,22.416-22.415,22.416S848.621,260.139,848.621,247.759z
		 M1116.308,294.173c0-12.38,10.035-22.416,22.415-22.416c12.379,0,22.415,10.036,22.415,22.416s-10.035,22.416-22.415,22.416
		C1126.344,316.589,1116.308,306.553,1116.308,294.173z M970.292,381.179c-7.48-6.478-10.324-16.579-10.401-26.681
		c0.078-10.102,2.921-20.203,10.401-26.681c7.33-6.61,18.761-9.123,30.192-9.192c11.431,0.069,22.862,2.581,30.192,9.192
		c7.48,6.477,10.324,16.579,10.401,26.681c-0.078,10.102-2.921,20.203-10.401,26.681c-7.33,6.61-18.761,9.123-30.192,9.192
		C989.053,390.302,977.622,387.79,970.292,381.179z"/>
</g>
<g>
	<g>
		<rect x="2159" y="151.601" class="st1" width="45.066" height="194.063"/>
		<rect x="2331.976" y="151.601" class="st1" width="45.066" height="194.063"/>
		<rect x="2274.317" y="151.601" class="st1" width="45.066" height="194.063"/>
		<rect x="2216.658" y="151.601" class="st1" width="45.066" height="194.063"/>
		<path class="st1" d="M2369.039,337.904l-66.648,66.648h-68.74l-66.648-66.648l-8.003,8.003l103.659,103.659
			c2.961,2.961,7.763,2.961,10.724,0l103.659-103.659L2369.039,337.904z"/>
	</g>
	<g>
		<path class="st1" d="M2548.567,148.213l-48.572,112.563l30.364,69.991C2586.246,268.875,2638.207,184.275,2548.567,148.213z"/>
		<path class="st1" d="M2566.955,397.585h-18.583l-107.606-249.372c-93.571,37.643-32.849,128.175,25.572,190.56l-25.378,58.812
			h-19.938c-14.91,0-27.041,12.13-27.041,27.04s12.13,27.04,27.041,27.04h20.602c14.91,0,27.04-12.13,27.04-27.04
			c0-9.655-5.09-18.139-12.724-22.924c5.04-4.13,20.157-16.75,38.725-34.426c17.918,17.057,32.616,29.4,38.153,33.955
			c-8.066,4.685-13.506,13.414-13.506,23.395c0,14.91,12.13,27.04,27.04,27.04h20.602c14.91,0,27.041-12.13,27.041-27.04
			S2581.865,397.585,2566.955,397.585z M2457.506,424.626c0,8.757-7.124,15.881-15.881,15.881h-20.602
			c-8.757,0-15.881-7.124-15.881-15.881c0-8.757,7.125-15.881,15.881-15.881h20.602
			C2450.382,408.745,2457.506,415.869,2457.506,424.626z M2494.61,337.128c-5.726,0-10.368-4.642-10.368-10.368
			c0-5.726,4.642-10.368,10.368-10.368s10.368,4.642,10.368,10.368C2504.978,332.486,2500.336,337.128,2494.61,337.128z
			 M2566.955,440.507h-20.602c-8.756,0-15.881-7.124-15.881-15.881c0-8.757,7.125-15.881,15.881-15.881h20.602
			c8.757,0,15.881,7.124,15.881,15.881C2582.836,433.382,2575.712,440.507,2566.955,440.507z"/>
	</g>
</g>
<g id="Logotype_x5F_ru">
	<g id="English_1_">
		<path class="st1" d="M203.327,257.322h-28.458v-73.297h-38.334v-24.994h105.126v24.994h-38.334V257.322z"/>
		<path class="st1" d="M252.163,249.178c-6.6-6.739-9.9-16.007-9.9-27.802v-35.526h26.679v29.347c0,6.834,1.802,12.147,5.406,15.938
			c3.603,3.791,8.588,5.687,14.954,5.687c6.365,0,11.35-1.896,14.955-5.687c3.603-3.791,5.405-9.103,5.405-15.938v-29.347h26.679
			v71.472h-26.679l3.651-20.782h-2.527c-2.061,7.491-5.806,13.153-11.233,16.991c-5.43,3.838-12.265,5.757-20.501,5.757
			C267.724,259.289,258.762,255.918,252.163,249.178z"/>
		<path class="st1" d="M414.412,209.441v-23.59h26.679v71.472h-26.679v-25.415h-40.861v25.415h-26.679v-71.472h26.679v23.59H414.412
			z"/>
		<path class="st1" d="M460.821,249.178c-6.6-6.739-9.9-16.007-9.9-27.802v-35.526H477.6v29.347c0,6.834,1.802,12.147,5.406,15.938
			c3.603,3.791,8.588,5.687,14.954,5.687c6.365,0,11.35-1.896,14.955-5.687c3.603-3.791,5.405-9.103,5.405-15.938v-29.347H545
			v71.472h-26.679l3.651-20.782h-2.527c-2.061,7.491-5.806,13.153-11.233,16.991c-5.43,3.838-12.265,5.757-20.501,5.757
			C476.382,259.289,467.42,255.918,460.821,249.178z"/>
	</g>
	<g id="Вини">
		<path class="st1" d="M143.603,292.239c7.955,0.656,14.042,3.068,18.254,7.232c4.213,4.166,6.319,9.618,6.319,16.358
			c0,17.787-12.265,26.679-36.789,26.679H55v-98.292h77.089c10.953,0,19.119,2.106,24.503,6.319
			c5.382,4.213,8.074,9.923,8.074,17.131c0,6.087-1.826,11.047-5.476,14.885c-3.651,3.84-8.846,6.087-15.586,6.74V292.239z
			 M84.207,267.105v15.587h40.159c3.276,0,5.757-0.702,7.442-2.106c1.685-1.404,2.527-3.322,2.527-5.757
			c0-2.434-0.842-4.329-2.527-5.687c-1.685-1.356-4.166-2.036-7.442-2.036H84.207z M127.174,319.62c3.557,0,6.225-0.748,8.004-2.246
			c1.777-1.497,2.668-3.557,2.668-6.179c0-2.713-0.89-4.82-2.668-6.319c-1.779-1.496-4.447-2.246-8.004-2.246H84.207v16.99H127.174z
			"/>
		<path class="st1" d="M184.763,334.364c-6.6-6.739-9.9-16.007-9.9-27.802v-35.526h27.615v29.347c0,6.834,0.865,12.147,4.47,15.938
			c3.603,3.791,8.588,5.687,14.954,5.687c6.365,0,11.35-1.896,14.954-5.687c3.603-3.791,5.406-9.103,5.406-15.938v-29.347h26.68
			v71.472h-26.68l3.651-20.782h-2.527c-2.06,7.491-5.805,13.153-11.233,16.991c-5.43,3.838-12.265,5.757-20.501,5.757
			C200.325,344.475,191.362,341.104,184.763,334.364z"/>
		<path class="st1" d="M347.012,294.627v-23.59h26.679v71.472h-26.679v-25.415h-40.861v25.415h-26.679v-71.472h26.679v23.59H347.012
			z"/>
		<path class="st1" d="M393.42,334.364c-6.6-6.739-9.9-16.007-9.9-27.802v-35.526H410.2v29.347c0,6.834,1.802,12.147,5.405,15.938
			s8.588,5.687,14.955,5.687c6.365,0,11.349-1.896,14.955-5.687c3.602-3.791,5.405-9.103,5.405-15.938v-29.347H477.6v71.472h-26.679
			l3.65-20.782h-2.527c-2.061,7.491-5.805,13.153-11.233,16.991c-5.43,3.838-12.265,5.757-20.501,5.757
			C408.982,344.475,400.02,341.104,393.42,334.364z"/>
	</g>
	<g id="Тини">
		<path class="st1" d="M155.43,356.45v12.974h-47.913v13.16h41.426v11.584h-41.426v14.179h47.913v12.975H91.021V356.45H155.43z"/>
		<path class="st1" d="M163.222,421.322v-47.079h14.643l-2.224,14.18h1.576c1.358-4.942,3.939-8.742,7.738-11.399
			c3.8-2.656,8.726-3.985,14.782-3.985c7.97,0,14.24,2.317,18.813,6.951c4.572,4.633,6.858,11.028,6.858,19.183v22.149h-14.55
			v-18.813c0-5.499-1.453-9.731-4.356-12.697c-2.905-2.966-6.951-4.448-12.141-4.448c-5.19,0-9.237,1.483-12.14,4.448
			c-2.905,2.966-4.356,7.198-4.356,12.697v18.813H163.222z"/>
		<path class="st1" d="M246.268,440.042c-3.398-0.618-6.858-1.575-10.38-2.873v-11.955c4.138,1.297,7.799,2.208,10.982,2.733
			c3.181,0.525,6.594,0.788,10.241,0.788c8.835,0,15.338-1.761,19.509-5.282c4.17-3.522,6.255-8.526,6.255-15.013v-1.854h-1.39
			c-1.545,4.017-4.141,7.076-7.785,9.175c-3.647,2.102-8.804,3.151-15.477,3.151c-5.5,0-10.241-0.987-14.226-2.966
			c-3.985-1.976-7.029-4.694-9.128-8.155c-2.101-3.459-3.151-7.414-3.151-11.862c0-4.386,1.05-8.309,3.151-11.77
			c2.1-3.459,5.128-6.177,9.082-8.155c3.953-1.976,8.649-2.966,14.086-2.966c6.487,0,11.677,1.205,15.569,3.615
			c3.893,2.409,6.58,5.808,8.063,10.194h1.483l-2.039-12.511h14.55v29.749c0,12.604-3.028,21.902-9.081,27.895
			c-6.057,5.992-15.539,8.99-28.452,8.99C253.62,440.969,249.665,440.659,246.268,440.042z M276.527,405.243
			c2.933-2.254,4.403-5.143,4.403-8.665c0-3.522-1.47-6.395-4.403-8.619c-2.936-2.224-7.245-3.337-12.928-3.337
			c-5.685,0-9.995,1.113-12.928,3.337c-2.935,2.224-4.402,5.096-4.402,8.619c0,3.521,1.467,6.41,4.402,8.665
			c2.934,2.256,7.243,3.382,12.928,3.382C269.282,408.625,273.591,407.499,276.527,405.243z"/>
		<path class="st1" d="M319.583,421.322H304.94V356.45h14.642V421.322z"/>
		<path class="st1" d="M329.785,364.976c-1.545-1.421-2.317-3.212-2.317-5.375c0-2.162,0.772-3.953,2.317-5.375
			c1.544-1.421,3.645-2.132,6.302-2.132c2.594,0,4.664,0.711,6.209,2.132c1.544,1.422,2.316,3.213,2.316,5.375
			c0,2.163-0.772,3.955-2.316,5.375c-1.545,1.422-3.615,2.131-6.209,2.131C333.43,367.107,331.329,366.398,329.785,364.976z
			 M343.409,421.322h-14.643v-47.079h14.643V421.322z"/>
		<path class="st1" d="M357.273,417.754c-4.789-3.181-7.183-7.461-7.183-12.836v-0.741h14.828v0.557
			c0,4.943,5.158,7.414,15.477,7.414c5.869,0,9.9-0.494,12.094-1.483c2.193-0.988,3.29-2.285,3.29-3.893
			c0-1.421-0.727-2.47-2.178-3.151c-1.453-0.679-3.26-1.126-5.422-1.344c-2.163-0.216-5.252-0.417-9.267-0.602
			c-5.931-0.246-10.783-0.663-14.55-1.251c-3.769-0.587-7.013-1.837-9.731-3.754c-2.719-1.914-4.077-4.82-4.077-8.711
			c0-4.449,2.317-8.047,6.95-10.797c4.634-2.748,12.264-4.124,22.891-4.124c9.946,0,17.33,1.654,22.149,4.958
			c4.819,3.306,7.352,7.585,7.599,12.835h-14.829c-0.37-4.942-5.344-7.414-14.92-7.414c-10.009,0-15.013,1.793-15.013,5.375
			c0,1.854,1.297,3.044,3.893,3.568c2.594,0.526,6.733,0.912,12.418,1.158c5.992,0.186,10.92,0.572,14.782,1.158
			c3.861,0.589,7.182,1.87,9.963,3.847c2.78,1.977,4.17,4.943,4.17,8.897c0,10.071-10.071,15.106-30.212,15.106
			C369.768,422.527,362.06,420.937,357.273,417.754z"/>
		<path class="st1" d="M417.288,421.322V356.45h14.642v15.106c0,2.843-0.185,5.592-0.556,8.248c-0.37,2.657-0.927,5.53-1.668,8.619
			h1.576c1.358-4.942,3.938-8.742,7.738-11.399c3.799-2.656,8.726-3.985,14.781-3.985c7.971,0,14.24,2.317,18.814,6.951
			c4.571,4.633,6.857,11.028,6.857,19.183v22.149h-14.55v-18.813c0-5.499-1.452-9.731-4.355-12.697
			c-2.905-2.966-6.951-4.448-12.141-4.448c-5.19,0-9.237,1.483-12.14,4.448c-2.904,2.966-4.356,7.198-4.356,12.697v18.813H417.288z"
			/>
	</g>
</g>
</svg>
